# xmcd
#
# Track frame offsets: 
#        150
#        6642
#        12993
#        15616
#        21268
#        26430
#        29512
#        35228
#        41531
#        48748
#        51492
#        60270
#        68064
#        76156
#        83940
#        87925
#        93923
#        98556
#        102793
#        110228
#        121436
#        133489
#        142611
#        150738
#        163761
#        176256
#        183170
#        193663
#        208220
#        215019
#        227899
#        238497
#        251893
#        264672
#        277723
#        292374
#
# Disc length: 4152 seconds
#
# Revision: 0
# Processed by: cddbd v1.5.2PL0 Copyright (c) Steve Scherf et al.
# Submitted via: ExactAudioCopy v0.95a5
#
DISCID=10103624
DTITLE=Ao Vivo - Irah Caldeira
DYEAR=2007
DGENRE=Folk
TTITLE0=Boiadeiro
TTITLE1=Vida de viajante
TTITLE2=Pé de serra
TTITLE3=Estrada de Canindé
TTITLE4=Garotas do Leblon
TTITLE5=Facilita
TTITLE6=Sanfona do povo
TTITLE7=Assum Preto - Pau de Arara
TTITLE8=Asa Branca
TTITLE9=Que nem jiló
TTITLE10=A volta da asa branca
TTITLE11=Segura o forró
TTITLE12=Te faço gamar
TTITLE13=Imbalança
TTITLE14=Na base da chinela
TTITLE15=Eu sou o forró
TTITLE16=Bota Severina para Moer
TTITLE17=É proibido cochilar
TTITLE18=Forró do Xenhenhém
TTITLE19=Bole bole da Sanfona
TTITLE20=Até mais ver
TTITLE21=Cabôclo sonhador
TTITLE22=Caia por cima de mim
TTITLE23=Se tu quiser
TTITLE24=Aperta o nó
TTITLE25=Calango da lacraia
TTITLE26=Amar quem eu já amei
TTITLE27=Periga ser
TTITLE28=Gemedeira
TTITLE29=Frevo mulher
TTITLE30=Parte da minha vida
TTITLE31=Patativa
TTITLE32=Flor do croatá
TTITLE33=Quero ter você
TTITLE34=Vida viola
TTITLE35=A natureza das coisas
EXTD=
EXTT0=
EXTT1=
EXTT2=
EXTT3=
EXTT4=
EXTT5=
EXTT6=
EXTT7=
EXTT8=
EXTT9=
EXTT10=
EXTT11=
EXTT12=
EXTT13=
EXTT14=
EXTT15=
EXTT16=
EXTT17=
EXTT18=
EXTT19=
EXTT20=
EXTT21=
EXTT22=
EXTT23=
EXTT24=
EXTT25=
EXTT26=
EXTT27=
EXTT28=
EXTT29=
EXTT30=
EXTT31=
EXTT32=
EXTT33=
EXTT34=
EXTT35=
PLAYORDER=
